<svg width="1080" height="1080" viewBox="0 0 1080 1080" fill="none" xmlns="http://www.w3.org/2000/svg">
<path d="M179 131L651 131V203L179 203V131ZM179 227L651 227V251L179 251V227ZM179 275L651 275L651 299L179 299V275ZM179 323L651 323V395L179 395L179 323ZM179 491L651 491V515L179 515L179 491Z" fill="#A06BE0"/>
<path d="M179 538.812L651 538.812V562.813L179 562.813V538.812ZM179 586.813L651 586.813V658.813L179 658.813L179 586.813ZM179 682.813L651 682.813V706.813L179 706.813V682.813ZM179 730.813L651 730.813V802.813L179 802.813V730.813ZM179 898.813L651 898.813V922.813L179 922.813V898.813Z" fill="#ECEFF1"/>
<path d="M789.5 289.725C802.1 289.725 813.2 288.225 822.8 285.225C832.55 282.075 840.65 277.725 847.1 272.175C853.7 266.475 858.65 259.725 861.95 251.925C865.25 244.125 866.9 235.5 866.9 226.05C866.9 206.85 860.6 192.375 848 182.625C835.4 172.875 816.5 168 791.3 168H743.6V289.725H789.5ZM938.45 456H899.75C891.8 456 885.95 452.925 882.2 446.775L798.5 331.575C795.95 327.975 793.175 325.425 790.175 323.925C787.325 322.275 782.825 321.45 776.675 321.45H743.6V456H700.175V133.575H791.3C811.7 133.575 829.325 135.675 844.175 139.875C859.025 143.925 871.25 149.85 880.85 157.65C890.6 165.45 897.8 174.9 902.45 186C907.1 196.95 909.425 209.25 909.425 222.9C909.425 234.3 907.625 244.95 904.025 254.85C900.425 264.75 895.175 273.675 888.275 281.625C881.525 289.425 873.2 296.1 863.3 301.65C853.55 307.2 842.45 311.4 830 314.25C835.55 317.4 840.35 321.975 844.4 327.975L938.45 456Z" fill="#ECEFF1"/>
<path d="M899.1 656.975C897.75 659.225 896.25 660.95 894.6 662.15C893.1 663.2 891.225 663.725 888.975 663.725C886.425 663.725 883.425 662.45 879.975 659.9C876.525 657.35 872.175 654.575 866.925 651.575C861.825 648.425 855.6 645.575 848.25 643.025C841.05 640.475 832.275 639.2 821.925 639.2C812.175 639.2 803.55 640.55 796.05 643.25C788.7 645.8 782.475 649.325 777.375 653.825C772.425 658.325 768.675 663.65 766.125 669.8C763.575 675.8 762.3 682.325 762.3 689.375C762.3 698.375 764.475 705.875 768.825 711.875C773.325 717.725 779.175 722.75 786.375 726.95C793.725 731.15 801.975 734.825 811.125 737.975C820.425 740.975 829.875 744.125 839.475 747.425C849.225 750.725 858.675 754.475 867.825 758.675C877.125 762.725 885.375 767.9 892.575 774.2C899.925 780.5 905.775 788.225 910.125 797.375C914.625 806.525 916.875 817.775 916.875 831.125C916.875 845.225 914.475 858.5 909.675 870.95C904.875 883.25 897.825 893.975 888.525 903.125C879.375 912.275 868.05 919.475 854.55 924.725C841.2 929.975 825.975 932.6 808.875 932.6C787.875 932.6 768.825 928.85 751.725 921.35C734.625 913.7 720 903.425 707.85 890.525L720.45 869.825C721.65 868.175 723.075 866.825 724.725 865.775C726.525 864.575 728.475 863.975 730.575 863.975C732.525 863.975 734.7 864.8 737.1 866.45C739.65 867.95 742.5 869.9 745.65 872.3C748.8 874.7 752.4 877.325 756.45 880.175C760.5 883.025 765.075 885.65 770.175 888.05C775.425 890.45 781.35 892.475 787.95 894.125C794.55 895.625 801.975 896.375 810.225 896.375C820.575 896.375 829.8 894.95 837.9 892.1C846 889.25 852.825 885.275 858.375 880.175C864.075 874.925 868.425 868.7 871.425 861.5C874.425 854.3 875.925 846.275 875.925 837.425C875.925 827.675 873.675 819.725 869.175 813.575C864.825 807.275 859.05 802.025 851.85 797.825C844.65 793.625 836.4 790.1 827.1 787.25C817.8 784.25 808.35 781.25 798.75 778.25C789.15 775.1 779.7 771.5 770.4 767.45C761.1 763.4 752.85 758.15 745.65 751.7C738.45 745.25 732.6 737.225 728.1 727.625C723.75 717.875 721.575 705.875 721.575 691.625C721.575 680.225 723.75 669.2 728.1 658.55C732.6 647.9 739.05 638.45 747.45 630.2C756 621.95 766.425 615.35 778.725 610.4C791.175 605.45 805.425 602.975 821.475 602.975C839.475 602.975 855.825 605.825 870.525 611.525C885.375 617.225 898.425 625.475 909.675 636.275L899.1 656.975Z" fill="#ECEFF1"/>
</svg>
