<svg width="1080" height="1080" viewBox="0 0 1080 1080" fill="black" xmlns="http://www.w3.org/2000/svg">
<path d="M303 268.5H302.5V269V317.648V318.148H303L622 318.148H622.5V317.648V269V268.5H622L303 268.5ZM303 333.364H302.5V333.864L302.5 350.08V350.58H303L622 350.58H622.5V350.08V333.864V333.364H622L303 333.364ZM303 365.796H302.5V366.296V382.512V383.012H303L622 383.012H622.5V382.512V366.296V365.796H622L303 365.796ZM303 398.228H302.5V398.728V447.376V447.876H303L622 447.876H622.5V447.376L622.5 398.728V398.228H622L303 398.228ZM303 511.739H302.5V512.239V528.455V528.955H303L622 528.955H622.5V528.455V512.239V511.739H622L303 511.739ZM303 544.045H302.5V544.545V560.761V561.261H303L622 561.261H622.5V560.761V544.545V544.045H622L303 544.045ZM303 576.477H302.5V576.977V625.624V626.124H303L622 626.124H622.5V625.624V576.977V576.477H622L303 576.477ZM303 641.34H302.5V641.84L302.5 658.056V658.556H303L622 658.556H622.5V658.056V641.84V641.34H622L303 641.34ZM303 673.772H302.5V674.272V722.92V723.42H303L622 723.42H622.5V722.92L622.5 674.272V673.772H622L303 673.772ZM303 787.284H302.5V787.784L302.5 804V804.5H303L622 804.5H622.5V804V787.784V787.284H622L303 787.284Z" fill="#A06BE0"/>
<path d="M715.356 374.577C723.87 374.577 731.37 373.563 737.856 371.535C744.444 369.405 749.918 366.464 754.276 362.711C758.735 358.857 762.08 354.293 764.31 349.02C766.539 343.746 767.654 337.914 767.654 331.525C767.654 318.543 763.398 308.756 754.884 302.164C746.37 295.572 733.6 292.276 716.572 292.276H684.342V374.577H715.356ZM816 487H789.851C784.479 487 780.526 484.921 777.992 480.763L721.437 402.873C719.714 400.439 717.839 398.715 715.812 397.701C713.886 396.585 710.846 396.027 706.69 396.027H684.342V487H655V269H716.572C730.356 269 742.265 270.42 752.299 273.26C762.333 275.998 770.594 280.004 777.08 285.278C783.668 290.552 788.533 296.941 791.675 304.446C794.817 311.849 796.388 320.166 796.388 329.395C796.388 337.103 795.172 344.304 792.739 350.997C790.307 357.691 786.76 363.725 782.097 369.1C777.536 374.374 771.911 378.887 765.222 382.64C758.634 386.392 751.134 389.232 742.721 391.159C746.472 393.289 749.715 396.382 752.451 400.439L816 487Z" fill="#F2F2F2"/>
<path d="M794.925 623.532C794.008 625.055 792.989 626.222 791.868 627.033C790.849 627.744 789.575 628.099 788.046 628.099C786.314 628.099 784.276 627.236 781.932 625.511C779.588 623.786 776.633 621.909 773.067 619.879C769.602 617.748 765.373 615.82 760.38 614.095C755.489 612.37 749.527 611.507 742.496 611.507C735.873 611.507 730.013 612.42 724.918 614.247C719.925 615.972 715.696 618.357 712.231 621.401C708.869 624.446 706.321 628.048 704.589 632.209C702.856 636.268 701.99 640.682 701.99 645.452C701.99 651.541 703.468 656.615 706.423 660.674C709.48 664.631 713.454 668.031 718.346 670.872C723.339 673.714 728.943 676.2 735.159 678.331C741.477 680.361 747.897 682.492 754.419 684.724C761.042 686.957 767.462 689.494 773.678 692.335C779.996 695.075 785.601 698.576 790.492 702.838C795.485 707.1 799.459 712.327 802.414 718.517C805.471 724.707 807 732.318 807 741.349C807 750.889 805.37 759.869 802.109 768.292C798.848 776.613 794.058 783.869 787.741 790.059C781.525 796.25 773.831 801.121 764.66 804.672C755.591 808.224 745.248 810 733.631 810C719.365 810 706.423 807.463 694.806 802.389C683.189 797.214 673.254 790.262 665 781.535L673.56 767.531C674.375 766.415 675.343 765.501 676.464 764.791C677.687 763.979 679.011 763.573 680.438 763.573C681.763 763.573 683.24 764.132 684.871 765.248C686.603 766.263 688.539 767.582 690.679 769.205C692.819 770.829 695.265 772.605 698.016 774.533C700.767 776.461 703.875 778.237 707.34 779.861C710.907 781.484 714.932 782.854 719.416 783.971C723.899 784.985 728.943 785.493 734.548 785.493C741.579 785.493 747.846 784.529 753.349 782.601C758.851 780.673 763.488 777.983 767.258 774.533C771.131 770.981 774.086 766.77 776.124 761.899C778.162 757.028 779.181 751.599 779.181 745.612C779.181 739.015 777.652 733.637 774.595 729.476C771.64 725.214 767.717 721.663 762.826 718.821C757.934 715.98 752.33 713.595 746.012 711.667C739.694 709.637 733.274 707.608 726.752 705.578C720.231 703.447 713.811 701.012 707.493 698.272C701.175 695.532 695.571 691.98 690.679 687.616C685.788 683.253 681.814 677.824 678.757 671.329C675.802 664.733 674.324 656.615 674.324 646.974C674.324 639.262 675.802 631.803 678.757 624.598C681.814 617.393 686.196 611 691.902 605.418C697.71 599.837 704.793 595.372 713.149 592.023C721.606 588.674 731.287 587 742.191 587C754.419 587 765.526 588.928 775.512 592.784C785.601 596.641 794.466 602.222 802.109 609.528L794.925 623.532Z" fill="#F2F2F2"/>
</svg>
